<mxfile host="app.diagrams.net" modified="2021-01-20T12:58:24.808Z" agent="5.0 (Macintosh; Intel Mac OS X 10_15_7) AppleWebKit/605.1.15 (KHTML, like Gecko) Version/14.0 Safari/605.1.15" etag="zidvMraVJSlO-1-ux2qT" version="14.2.5" type="github">
  <diagram id="BotvA4j4-ElXOsM8e_Iz" name="Page-1">
    <mxGraphModel dx="1810" dy="602" grid="1" gridSize="10" guides="1" tooltips="1" connect="1" arrows="1" fold="1" page="1" pageScale="1" pageWidth="827" pageHeight="1169" math="0" shadow="0">
      <root>
        <mxCell id="0" />
        <mxCell id="1" parent="0" />
        <mxCell id="3cvxbS-q7kxN0Z_x5rNs-54" value="" style="shape=ext;double=1;whiteSpace=wrap;html=1;aspect=fixed;fontSize=10;align=center;" vertex="1" parent="1">
          <mxGeometry x="-302" y="40" width="540" height="540" as="geometry" />
        </mxCell>
        <mxCell id="3cvxbS-q7kxN0Z_x5rNs-23" style="edgeStyle=orthogonalEdgeStyle;rounded=0;orthogonalLoop=1;jettySize=auto;html=1;exitX=0.5;exitY=1;exitDx=0;exitDy=0;entryX=0.5;entryY=0;entryDx=0;entryDy=0;fontSize=10;" edge="1" parent="1" source="3cvxbS-q7kxN0Z_x5rNs-2" target="3cvxbS-q7kxN0Z_x5rNs-3">
          <mxGeometry relative="1" as="geometry" />
        </mxCell>
        <mxCell id="3cvxbS-q7kxN0Z_x5rNs-2" value="Obtain frame from Camera" style="shape=process;whiteSpace=wrap;html=1;backgroundOutline=1;" vertex="1" parent="1">
          <mxGeometry x="354" y="60" width="120" height="40" as="geometry" />
        </mxCell>
        <mxCell id="3cvxbS-q7kxN0Z_x5rNs-24" style="edgeStyle=orthogonalEdgeStyle;rounded=0;orthogonalLoop=1;jettySize=auto;html=1;exitX=0.5;exitY=1;exitDx=0;exitDy=0;entryX=0.5;entryY=0;entryDx=0;entryDy=0;fontSize=10;" edge="1" parent="1" source="3cvxbS-q7kxN0Z_x5rNs-3" target="3cvxbS-q7kxN0Z_x5rNs-4">
          <mxGeometry relative="1" as="geometry" />
        </mxCell>
        <mxCell id="3cvxbS-q7kxN0Z_x5rNs-3" value="&lt;p style=&quot;margin: 0px ; font-stretch: normal ; line-height: normal ; font-family: &amp;#34;menlo&amp;#34; ; color: rgb(103 , 183 , 164) ; background-color: rgb(31 , 31 , 36) ; font-size: 10px&quot;&gt;patternDetectionResult&lt;span style=&quot;color: rgba(255 , 255 , 255 , 0.85)&quot;&gt; = api.&lt;/span&gt;checkAlignment&lt;span style=&quot;color: rgba(255 , 255 , 255 , 0.85)&quot;&gt;(frame)&lt;/span&gt;&lt;/p&gt;" style="shape=process;whiteSpace=wrap;html=1;backgroundOutline=1;" vertex="1" parent="1">
          <mxGeometry x="264" y="120" width="300" height="30" as="geometry" />
        </mxCell>
        <mxCell id="3cvxbS-q7kxN0Z_x5rNs-25" style="edgeStyle=orthogonalEdgeStyle;rounded=0;orthogonalLoop=1;jettySize=auto;html=1;exitX=0.5;exitY=1;exitDx=0;exitDy=0;entryX=0.5;entryY=0;entryDx=0;entryDy=0;fontSize=10;" edge="1" parent="1" source="3cvxbS-q7kxN0Z_x5rNs-4" target="3cvxbS-q7kxN0Z_x5rNs-5">
          <mxGeometry relative="1" as="geometry" />
        </mxCell>
        <mxCell id="3cvxbS-q7kxN0Z_x5rNs-59" style="edgeStyle=orthogonalEdgeStyle;rounded=0;orthogonalLoop=1;jettySize=auto;html=1;exitX=0;exitY=0.5;exitDx=0;exitDy=0;entryX=1;entryY=0.25;entryDx=0;entryDy=0;fontSize=10;dashed=1;endArrow=none;endFill=0;" edge="1" parent="1" source="3cvxbS-q7kxN0Z_x5rNs-4" target="3cvxbS-q7kxN0Z_x5rNs-54">
          <mxGeometry relative="1" as="geometry" />
        </mxCell>
        <mxCell id="3cvxbS-q7kxN0Z_x5rNs-4" value="&lt;p style=&quot;margin: 0px ; font-stretch: normal ; line-height: normal ; font-family: &amp;#34;menlo&amp;#34; ; color: rgb(103 , 183 , 164) ; background-color: rgb(31 , 31 , 36) ; font-size: 10px&quot;&gt;checkEvents&lt;span style=&quot;color: rgba(255 , 255 , 255 , 0.85)&quot;&gt;()&lt;/span&gt;&lt;/p&gt;" style="shape=process;whiteSpace=wrap;html=1;backgroundOutline=1;" vertex="1" parent="1">
          <mxGeometry x="354" y="170" width="120" height="30" as="geometry" />
        </mxCell>
        <mxCell id="3cvxbS-q7kxN0Z_x5rNs-35" style="edgeStyle=orthogonalEdgeStyle;rounded=0;orthogonalLoop=1;jettySize=auto;html=1;exitX=1;exitY=0.5;exitDx=0;exitDy=0;entryX=1;entryY=0.5;entryDx=0;entryDy=0;fontSize=10;" edge="1" parent="1" source="3cvxbS-q7kxN0Z_x5rNs-5" target="3cvxbS-q7kxN0Z_x5rNs-10">
          <mxGeometry relative="1" as="geometry">
            <Array as="points">
              <mxPoint x="570" y="245" />
              <mxPoint x="570" y="390" />
            </Array>
          </mxGeometry>
        </mxCell>
        <mxCell id="3cvxbS-q7kxN0Z_x5rNs-5" value="if (inited) ?" style="rhombus;whiteSpace=wrap;html=1;" vertex="1" parent="1">
          <mxGeometry x="374" y="220" width="80" height="50" as="geometry" />
        </mxCell>
        <mxCell id="3cvxbS-q7kxN0Z_x5rNs-28" style="edgeStyle=orthogonalEdgeStyle;rounded=0;orthogonalLoop=1;jettySize=auto;html=1;exitX=0.5;exitY=1;exitDx=0;exitDy=0;entryX=0.5;entryY=0;entryDx=0;entryDy=0;fontSize=10;" edge="1" parent="1" source="3cvxbS-q7kxN0Z_x5rNs-6" target="3cvxbS-q7kxN0Z_x5rNs-10">
          <mxGeometry relative="1" as="geometry" />
        </mxCell>
        <mxCell id="3cvxbS-q7kxN0Z_x5rNs-6" value="&lt;p style=&quot;margin: 0px ; font-stretch: normal ; line-height: normal ; font-family: &amp;#34;menlo&amp;#34; ; color: rgb(103 , 183 , 164) ; background-color: rgb(31 , 31 , 36) ; font-size: 10px&quot;&gt;initIParamAndThres&lt;span style=&quot;color: rgba(255 , 255 , 255 , 0.85)&quot;&gt; = api.&lt;/span&gt;getInitInstrinsicParameterAndThresholds&lt;span style=&quot;color: rgba(255 , 255 , 255 , 0.85)&quot;&gt;()&lt;/span&gt;&lt;/p&gt;" style="shape=process;whiteSpace=wrap;html=1;backgroundOutline=1;" vertex="1" parent="1">
          <mxGeometry x="264" y="290" width="300" height="40" as="geometry" />
        </mxCell>
        <mxCell id="3cvxbS-q7kxN0Z_x5rNs-8" value="" style="endArrow=classic;html=1;entryX=0.5;entryY=0;entryDx=0;entryDy=0;exitX=0.5;exitY=1;exitDx=0;exitDy=0;" edge="1" parent="1" source="3cvxbS-q7kxN0Z_x5rNs-5" target="3cvxbS-q7kxN0Z_x5rNs-6">
          <mxGeometry width="50" height="50" relative="1" as="geometry">
            <mxPoint x="420" y="340" as="sourcePoint" />
            <mxPoint x="470" y="290" as="targetPoint" />
          </mxGeometry>
        </mxCell>
        <mxCell id="3cvxbS-q7kxN0Z_x5rNs-29" style="edgeStyle=orthogonalEdgeStyle;rounded=0;orthogonalLoop=1;jettySize=auto;html=1;exitX=0.5;exitY=1;exitDx=0;exitDy=0;entryX=0;entryY=0.5;entryDx=0;entryDy=0;fontSize=10;" edge="1" parent="1" source="3cvxbS-q7kxN0Z_x5rNs-10" target="3cvxbS-q7kxN0Z_x5rNs-12">
          <mxGeometry relative="1" as="geometry" />
        </mxCell>
        <mxCell id="3cvxbS-q7kxN0Z_x5rNs-30" style="edgeStyle=orthogonalEdgeStyle;rounded=0;orthogonalLoop=1;jettySize=auto;html=1;exitX=0.5;exitY=1;exitDx=0;exitDy=0;entryX=0;entryY=0.5;entryDx=0;entryDy=0;fontSize=10;" edge="1" parent="1" source="3cvxbS-q7kxN0Z_x5rNs-10" target="3cvxbS-q7kxN0Z_x5rNs-11">
          <mxGeometry relative="1" as="geometry" />
        </mxCell>
        <mxCell id="3cvxbS-q7kxN0Z_x5rNs-31" style="edgeStyle=orthogonalEdgeStyle;rounded=0;orthogonalLoop=1;jettySize=auto;html=1;exitX=0.5;exitY=1;exitDx=0;exitDy=0;entryX=0;entryY=0.5;entryDx=0;entryDy=0;fontSize=10;" edge="1" parent="1" source="3cvxbS-q7kxN0Z_x5rNs-10" target="3cvxbS-q7kxN0Z_x5rNs-13">
          <mxGeometry relative="1" as="geometry" />
        </mxCell>
        <mxCell id="3cvxbS-q7kxN0Z_x5rNs-10" value="&lt;p style=&quot;margin: 0px ; font-stretch: normal ; line-height: normal ; font-family: &amp;#34;menlo&amp;#34; ; color: rgb(103 , 183 , 164) ; background-color: rgb(31 , 31 , 36) ; font-size: 10px&quot;&gt;patternDetectionResult&lt;span style=&quot;color: rgba(255 , 255 , 255 , 0.85)&quot;&gt;.&lt;/span&gt;type&lt;/p&gt;" style="rhombus;whiteSpace=wrap;html=1;" vertex="1" parent="1">
          <mxGeometry x="316" y="350" width="196" height="80" as="geometry" />
        </mxCell>
        <mxCell id="3cvxbS-q7kxN0Z_x5rNs-33" style="edgeStyle=orthogonalEdgeStyle;rounded=0;orthogonalLoop=1;jettySize=auto;html=1;exitX=1;exitY=0.5;exitDx=0;exitDy=0;entryX=0.5;entryY=0;entryDx=0;entryDy=0;fontSize=10;" edge="1" parent="1" source="3cvxbS-q7kxN0Z_x5rNs-11" target="3cvxbS-q7kxN0Z_x5rNs-2">
          <mxGeometry relative="1" as="geometry" />
        </mxCell>
        <mxCell id="3cvxbS-q7kxN0Z_x5rNs-11" value="&lt;span style=&quot;color: rgb(103 , 183 , 164) ; font-family: &amp;quot;menlo&amp;quot; ; background-color: rgb(31 , 31 , 36)&quot;&gt;&lt;font style=&quot;font-size: 10px&quot;&gt;if( type == ExpectedFoundAndMatchesPredifinedPattern)&lt;br&gt;drawCoordByGreen()&lt;br&gt;&lt;/font&gt;&lt;/span&gt;" style="rounded=1;whiteSpace=wrap;html=1;align=left;" vertex="1" parent="1">
          <mxGeometry x="448" y="500" width="332" height="40" as="geometry" />
        </mxCell>
        <mxCell id="3cvxbS-q7kxN0Z_x5rNs-32" style="edgeStyle=orthogonalEdgeStyle;rounded=0;orthogonalLoop=1;jettySize=auto;html=1;exitX=1;exitY=0.5;exitDx=0;exitDy=0;entryX=0.5;entryY=0;entryDx=0;entryDy=0;fontSize=10;" edge="1" parent="1" source="3cvxbS-q7kxN0Z_x5rNs-12" target="3cvxbS-q7kxN0Z_x5rNs-2">
          <mxGeometry relative="1" as="geometry" />
        </mxCell>
        <mxCell id="3cvxbS-q7kxN0Z_x5rNs-12" value="&lt;span style=&quot;color: rgb(103 , 183 , 164) ; font-family: &amp;quot;menlo&amp;quot; ; background-color: rgb(31 , 31 , 36)&quot;&gt;&lt;font style=&quot;font-size: 10px&quot;&gt;if( type == NotFound)&lt;br&gt;//nothing to do&lt;br&gt;&lt;/font&gt;&lt;/span&gt;" style="rounded=1;whiteSpace=wrap;html=1;align=left;" vertex="1" parent="1">
          <mxGeometry x="448" y="450" width="332" height="40" as="geometry" />
        </mxCell>
        <mxCell id="3cvxbS-q7kxN0Z_x5rNs-34" style="edgeStyle=orthogonalEdgeStyle;rounded=0;orthogonalLoop=1;jettySize=auto;html=1;exitX=1;exitY=0.5;exitDx=0;exitDy=0;entryX=0.5;entryY=0;entryDx=0;entryDy=0;fontSize=10;" edge="1" parent="1" source="3cvxbS-q7kxN0Z_x5rNs-13" target="3cvxbS-q7kxN0Z_x5rNs-2">
          <mxGeometry relative="1" as="geometry" />
        </mxCell>
        <mxCell id="3cvxbS-q7kxN0Z_x5rNs-13" value="&lt;span style=&quot;color: rgb(103 , 183 , 164) ; font-family: &amp;#34;menlo&amp;#34; ; background-color: rgb(31 , 31 , 36)&quot;&gt;&lt;font style=&quot;font-size: 10px&quot;&gt;//otherwice&lt;br&gt;drawCoordByRed()&lt;br&gt;&lt;/font&gt;&lt;/span&gt;" style="rounded=1;whiteSpace=wrap;html=1;align=left;" vertex="1" parent="1">
          <mxGeometry x="448" y="550" width="332" height="40" as="geometry" />
        </mxCell>
        <mxCell id="3cvxbS-q7kxN0Z_x5rNs-50" style="edgeStyle=orthogonalEdgeStyle;rounded=0;orthogonalLoop=1;jettySize=auto;html=1;exitX=0.5;exitY=1;exitDx=0;exitDy=0;entryX=0.5;entryY=0;entryDx=0;entryDy=0;fontSize=10;" edge="1" parent="1" source="3cvxbS-q7kxN0Z_x5rNs-15" target="3cvxbS-q7kxN0Z_x5rNs-40">
          <mxGeometry relative="1" as="geometry" />
        </mxCell>
        <mxCell id="3cvxbS-q7kxN0Z_x5rNs-51" style="edgeStyle=orthogonalEdgeStyle;rounded=0;orthogonalLoop=1;jettySize=auto;html=1;entryX=1;entryY=0.5;entryDx=0;entryDy=0;fontSize=10;" edge="1" parent="1" source="3cvxbS-q7kxN0Z_x5rNs-15" target="3cvxbS-q7kxN0Z_x5rNs-48">
          <mxGeometry relative="1" as="geometry">
            <Array as="points">
              <mxPoint x="180" y="150" />
              <mxPoint x="180" y="555" />
            </Array>
          </mxGeometry>
        </mxCell>
        <mxCell id="3cvxbS-q7kxN0Z_x5rNs-15" value="&lt;p style=&quot;margin: 0px ; font-stretch: normal ; font-size: 10px ; line-height: normal ; font-family: &amp;#34;menlo&amp;#34; ; background-color: rgb(31 , 31 , 36)&quot;&gt;&lt;span style=&quot;color: rgba(255 , 255 , 255 , 0.85) ; font-size: 10px&quot;&gt;api.&lt;/span&gt;&lt;font color=&quot;#67b7a4&quot;&gt;getEventQueueCountStateMachine&lt;/font&gt;&lt;span style=&quot;color: rgba(255 , 255 , 255 , 0.85) ; font-size: 10px&quot;&gt;() &lt;/span&gt;&lt;span style=&quot;color: rgb(161 , 103 , 230) ; font-size: 10px&quot;&gt;&amp;gt;&lt;/span&gt;&lt;span style=&quot;color: rgba(255 , 255 , 255 , 0.85) ; font-size: 10px&quot;&gt;&amp;nbsp;&lt;/span&gt;&lt;span style=&quot;font-size: 10px&quot;&gt;&lt;font color=&quot;#d0bf69&quot;&gt;0&lt;/font&gt;&lt;/span&gt;&lt;/p&gt;" style="rhombus;whiteSpace=wrap;html=1;align=left;fontSize=10;" vertex="1" parent="1">
          <mxGeometry x="-155" y="110" width="250" height="80" as="geometry" />
        </mxCell>
        <mxCell id="3cvxbS-q7kxN0Z_x5rNs-49" style="edgeStyle=orthogonalEdgeStyle;rounded=0;orthogonalLoop=1;jettySize=auto;html=1;exitX=0.5;exitY=1;exitDx=0;exitDy=0;entryX=0.5;entryY=0;entryDx=0;entryDy=0;fontSize=10;" edge="1" parent="1" source="3cvxbS-q7kxN0Z_x5rNs-16" target="3cvxbS-q7kxN0Z_x5rNs-48">
          <mxGeometry relative="1" as="geometry" />
        </mxCell>
        <mxCell id="3cvxbS-q7kxN0Z_x5rNs-16" value="&lt;p style=&quot;margin: 0px ; font-stretch: normal ; line-height: normal ; font-family: &amp;#34;menlo&amp;#34; ; color: rgb(103 , 183 , 164) ; background-color: rgb(31 , 31 , 36)&quot;&gt;&lt;span style=&quot;color: rgba(255 , 255 , 255 , 0.85)&quot;&gt;api.&lt;/span&gt;removeEventStateMachine&lt;span style=&quot;color: rgba(255 , 255 , 255 , 0.85)&quot;&gt;()&lt;/span&gt;&lt;br&gt;&lt;/p&gt;" style="rounded=1;whiteSpace=wrap;html=1;fontSize=10;align=left;" vertex="1" parent="1">
          <mxGeometry x="-132" y="460" width="200" height="60" as="geometry" />
        </mxCell>
        <mxCell id="3cvxbS-q7kxN0Z_x5rNs-44" style="edgeStyle=orthogonalEdgeStyle;rounded=0;orthogonalLoop=1;jettySize=auto;html=1;exitX=1;exitY=0.5;exitDx=0;exitDy=0;fontSize=10;" edge="1" parent="1" source="3cvxbS-q7kxN0Z_x5rNs-18">
          <mxGeometry relative="1" as="geometry">
            <mxPoint x="-32" y="460" as="targetPoint" />
            <Array as="points">
              <mxPoint x="160" y="320" />
              <mxPoint x="160" y="450" />
              <mxPoint x="-32" y="450" />
            </Array>
          </mxGeometry>
        </mxCell>
        <mxCell id="3cvxbS-q7kxN0Z_x5rNs-18" value="&lt;p style=&quot;margin: 0px ; font-stretch: normal ; line-height: normal ; font-family: &amp;#34;menlo&amp;#34; ; background-color: rgb(31 , 31 , 36)&quot;&gt;&lt;font style=&quot;font-size: 10px&quot;&gt;&lt;font color=&quot;#fc5fa3&quot;&gt;&lt;span&gt;&lt;b&gt;e ==&lt;/b&gt;&lt;/span&gt;&lt;/font&gt;&lt;span style=&quot;color: rgba(255 , 255 , 255 , 0.85)&quot;&gt;&amp;nbsp;&lt;/span&gt;&lt;font color=&quot;#67b7a4&quot;&gt;EVT_DETECTED&lt;/font&gt;&lt;span style=&quot;color: rgba(255 , 255 , 255 , 0.85)&quot;&gt;:&lt;/span&gt;&lt;/font&gt;&lt;/p&gt;&lt;p style=&quot;margin: 0px ; font-stretch: normal ; line-height: normal ; font-family: &amp;#34;menlo&amp;#34; ; color: rgba(255 , 255 , 255 , 0.85) ; background-color: rgb(31 , 31 , 36)&quot;&gt;&lt;font style=&quot;font-size: 10px&quot;&gt;//nothing to do &amp;nbsp; &amp;nbsp; &amp;nbsp; &amp;nbsp; &amp;nbsp;&lt;/font&gt;&lt;span style=&quot;font-size: 12px&quot;&gt;&amp;nbsp;&lt;/span&gt;&lt;/p&gt;" style="rounded=1;whiteSpace=wrap;html=1;fontSize=10;align=left;" vertex="1" parent="1">
          <mxGeometry y="300" width="140" height="40" as="geometry" />
        </mxCell>
        <mxCell id="3cvxbS-q7kxN0Z_x5rNs-47" style="edgeStyle=orthogonalEdgeStyle;rounded=0;orthogonalLoop=1;jettySize=auto;html=1;exitX=1;exitY=0.5;exitDx=0;exitDy=0;entryX=0.5;entryY=0;entryDx=0;entryDy=0;fontSize=10;" edge="1" parent="1" source="3cvxbS-q7kxN0Z_x5rNs-20" target="3cvxbS-q7kxN0Z_x5rNs-16">
          <mxGeometry relative="1" as="geometry">
            <Array as="points">
              <mxPoint x="160" y="370" />
              <mxPoint x="160" y="450" />
              <mxPoint x="-32" y="450" />
            </Array>
          </mxGeometry>
        </mxCell>
        <mxCell id="3cvxbS-q7kxN0Z_x5rNs-20" value="&lt;p style=&quot;margin: 0px ; font-stretch: normal ; line-height: normal ; font-family: &amp;#34;menlo&amp;#34; ; background-color: rgb(31 , 31 , 36)&quot;&gt;&lt;font style=&quot;font-size: 10px&quot;&gt;&lt;font color=&quot;#fc5fa3&quot;&gt;&lt;span&gt;&lt;b&gt;e ==&lt;/b&gt;&lt;/span&gt;&lt;/font&gt;&lt;span style=&quot;color: rgba(255 , 255 , 255 , 0.85)&quot;&gt;&amp;nbsp;&lt;/span&gt;&lt;/font&gt;&lt;font style=&quot;font-size: 10px&quot;&gt;&lt;span style=&quot;color: rgb(103 , 183 , 164) ; font-family: &amp;#34;menlo&amp;#34;&quot;&gt;EVT_CALIB_FINISH&lt;/span&gt;&lt;span style=&quot;color: rgba(255 , 255 , 255 , 0.85)&quot;&gt;:&lt;/span&gt;&lt;/font&gt;&lt;/p&gt;&lt;p style=&quot;margin: 0px ; font-stretch: normal ; line-height: normal ; font-family: &amp;#34;menlo&amp;#34; ; color: rgba(255 , 255 , 255 , 0.85) ; background-color: rgb(31 , 31 , 36)&quot;&gt;&lt;font style=&quot;font-size: 10px&quot;&gt;&lt;font style=&quot;font-size: 10px&quot;&gt;//stop calibration &amp;nbsp; &amp;nbsp; &amp;nbsp; &amp;nbsp;&amp;nbsp;&lt;/font&gt;&amp;nbsp;&lt;/font&gt;&lt;/p&gt;" style="rounded=1;whiteSpace=wrap;html=1;fontSize=10;align=left;" vertex="1" parent="1">
          <mxGeometry y="350" width="140" height="40" as="geometry" />
        </mxCell>
        <mxCell id="3cvxbS-q7kxN0Z_x5rNs-46" style="edgeStyle=orthogonalEdgeStyle;rounded=0;orthogonalLoop=1;jettySize=auto;html=1;exitX=1;exitY=0.5;exitDx=0;exitDy=0;fontSize=10;" edge="1" parent="1" source="3cvxbS-q7kxN0Z_x5rNs-21">
          <mxGeometry relative="1" as="geometry">
            <mxPoint x="-32" y="460" as="targetPoint" />
            <Array as="points">
              <mxPoint x="160" y="420" />
              <mxPoint x="160" y="450" />
              <mxPoint x="-32" y="450" />
            </Array>
          </mxGeometry>
        </mxCell>
        <mxCell id="3cvxbS-q7kxN0Z_x5rNs-21" value="&lt;p style=&quot;margin: 0px ; font-stretch: normal ; line-height: normal ; font-family: &amp;#34;menlo&amp;#34; ; background-color: rgb(31 , 31 , 36)&quot;&gt;&lt;font color=&quot;#fc5fa3&quot;&gt;&lt;span&gt;&lt;b&gt;//otherwice&lt;/b&gt;&lt;/span&gt;&lt;/font&gt;&lt;/p&gt;&lt;p style=&quot;margin: 0px ; font-stretch: normal ; line-height: normal ; font-family: &amp;#34;menlo&amp;#34; ; color: rgba(255 , 255 , 255 , 0.85) ; background-color: rgb(31 , 31 , 36)&quot;&gt;&lt;font style=&quot;font-size: 10px&quot;&gt;//nothing to do &amp;nbsp; &amp;nbsp; &amp;nbsp; &amp;nbsp; &amp;nbsp;&lt;/font&gt;&lt;span style=&quot;font-size: 12px&quot;&gt;&amp;nbsp;&lt;/span&gt;&lt;/p&gt;" style="rounded=1;whiteSpace=wrap;html=1;fontSize=10;align=left;" vertex="1" parent="1">
          <mxGeometry y="400" width="140" height="40" as="geometry" />
        </mxCell>
        <mxCell id="3cvxbS-q7kxN0Z_x5rNs-26" value="NO" style="text;html=1;strokeColor=none;fillColor=none;align=center;verticalAlign=middle;whiteSpace=wrap;rounded=0;fontSize=10;" vertex="1" parent="1">
          <mxGeometry x="408" y="260" width="40" height="20" as="geometry" />
        </mxCell>
        <mxCell id="3cvxbS-q7kxN0Z_x5rNs-36" value="YES" style="text;html=1;strokeColor=none;fillColor=none;align=center;verticalAlign=middle;whiteSpace=wrap;rounded=0;fontSize=10;" vertex="1" parent="1">
          <mxGeometry x="448" y="220" width="40" height="20" as="geometry" />
        </mxCell>
        <mxCell id="3cvxbS-q7kxN0Z_x5rNs-38" style="edgeStyle=orthogonalEdgeStyle;rounded=0;orthogonalLoop=1;jettySize=auto;html=1;exitX=0.5;exitY=1;exitDx=0;exitDy=0;entryX=0.5;entryY=0;entryDx=0;entryDy=0;fontSize=10;" edge="1" parent="1" source="3cvxbS-q7kxN0Z_x5rNs-37" target="3cvxbS-q7kxN0Z_x5rNs-15">
          <mxGeometry relative="1" as="geometry" />
        </mxCell>
        <mxCell id="3cvxbS-q7kxN0Z_x5rNs-37" value="START" style="ellipse;whiteSpace=wrap;html=1;fontSize=10;align=center;" vertex="1" parent="1">
          <mxGeometry x="-90" y="60" width="120" height="30" as="geometry" />
        </mxCell>
        <mxCell id="3cvxbS-q7kxN0Z_x5rNs-41" style="edgeStyle=orthogonalEdgeStyle;rounded=0;orthogonalLoop=1;jettySize=auto;html=1;exitX=0.5;exitY=1;exitDx=0;exitDy=0;entryX=0;entryY=0.5;entryDx=0;entryDy=0;fontSize=10;" edge="1" parent="1" source="3cvxbS-q7kxN0Z_x5rNs-40" target="3cvxbS-q7kxN0Z_x5rNs-18">
          <mxGeometry relative="1" as="geometry" />
        </mxCell>
        <mxCell id="3cvxbS-q7kxN0Z_x5rNs-42" style="edgeStyle=orthogonalEdgeStyle;rounded=0;orthogonalLoop=1;jettySize=auto;html=1;exitX=0.5;exitY=1;exitDx=0;exitDy=0;entryX=0;entryY=0.5;entryDx=0;entryDy=0;fontSize=10;" edge="1" parent="1" source="3cvxbS-q7kxN0Z_x5rNs-40" target="3cvxbS-q7kxN0Z_x5rNs-20">
          <mxGeometry relative="1" as="geometry" />
        </mxCell>
        <mxCell id="3cvxbS-q7kxN0Z_x5rNs-43" style="edgeStyle=orthogonalEdgeStyle;rounded=0;orthogonalLoop=1;jettySize=auto;html=1;exitX=0.5;exitY=1;exitDx=0;exitDy=0;entryX=0;entryY=0.5;entryDx=0;entryDy=0;fontSize=10;" edge="1" parent="1" source="3cvxbS-q7kxN0Z_x5rNs-40" target="3cvxbS-q7kxN0Z_x5rNs-21">
          <mxGeometry relative="1" as="geometry" />
        </mxCell>
        <mxCell id="3cvxbS-q7kxN0Z_x5rNs-40" value="&lt;p style=&quot;margin: 0px ; font-stretch: normal ; line-height: normal ; font-family: &amp;#34;menlo&amp;#34; ; color: rgb(103 , 183 , 164) ; background-color: rgb(31 , 31 , 36) ; font-size: 10px&quot;&gt;&lt;span style=&quot;text-align: left ; color: rgba(255 , 255 , 255 , 0.85)&quot;&gt;e = api!&lt;/span&gt;&lt;span style=&quot;text-align: left&quot;&gt;getEventStateMachine&lt;/span&gt;&lt;span style=&quot;text-align: left ; color: rgba(255 , 255 , 255 , 0.85)&quot;&gt;()&lt;/span&gt;&lt;br&gt;&lt;/p&gt;" style="rhombus;whiteSpace=wrap;html=1;" vertex="1" parent="1">
          <mxGeometry x="-128" y="205" width="196" height="80" as="geometry" />
        </mxCell>
        <mxCell id="3cvxbS-q7kxN0Z_x5rNs-48" value="END" style="ellipse;whiteSpace=wrap;html=1;fontSize=10;align=center;" vertex="1" parent="1">
          <mxGeometry x="-92" y="540" width="120" height="30" as="geometry" />
        </mxCell>
        <mxCell id="3cvxbS-q7kxN0Z_x5rNs-52" value="YES" style="text;html=1;strokeColor=none;fillColor=none;align=center;verticalAlign=middle;whiteSpace=wrap;rounded=0;fontSize=10;" vertex="1" parent="1">
          <mxGeometry x="-30" y="190" width="40" height="20" as="geometry" />
        </mxCell>
        <mxCell id="3cvxbS-q7kxN0Z_x5rNs-53" value="NO" style="text;html=1;strokeColor=none;fillColor=none;align=center;verticalAlign=middle;whiteSpace=wrap;rounded=0;fontSize=10;" vertex="1" parent="1">
          <mxGeometry x="100" y="130" width="40" height="20" as="geometry" />
        </mxCell>
        <mxCell id="3cvxbS-q7kxN0Z_x5rNs-56" value="checkEvents()" style="text;html=1;strokeColor=none;fillColor=none;align=center;verticalAlign=middle;whiteSpace=wrap;rounded=0;fontSize=10;fontStyle=1" vertex="1" parent="1">
          <mxGeometry x="170" y="50" width="40" height="20" as="geometry" />
        </mxCell>
        <mxCell id="3cvxbS-q7kxN0Z_x5rNs-58" value="" style="endArrow=none;dashed=1;html=1;dashPattern=1 3;strokeWidth=2;fontSize=10;" edge="1" parent="1">
          <mxGeometry width="50" height="50" relative="1" as="geometry">
            <mxPoint x="10" y="260" as="sourcePoint" />
            <mxPoint x="60" y="210" as="targetPoint" />
          </mxGeometry>
        </mxCell>
      </root>
    </mxGraphModel>
  </diagram>
</mxfile>
